<svg width="15" height="15" viewBox="0 0 15 15" fill="none" xmlns="http://www.w3.org/2000/svg">
<path d="M13.5488 9.9709C13.5488 12.2126 12.2124 13.549 9.97069 13.549H9.23782C8.8991 13.549 8.62196 13.2719 8.62196 12.9332V9.37968C8.62196 9.2134 8.75745 9.07176 8.92373 9.07176L10.0076 9.05328C10.0939 9.04712 10.1678 8.98554 10.1862 8.89932L10.4018 7.72304C10.4203 7.61218 10.334 7.50748 10.217 7.50748L8.90525 7.52596C8.73281 7.52596 8.59734 7.39048 8.59118 7.2242L8.56654 5.71535C8.56654 5.61681 8.64659 5.5306 8.75129 5.5306L10.2293 5.50596C10.334 5.50596 10.4141 5.42591 10.4141 5.32121L10.3895 3.84315C10.3895 3.73845 10.3094 3.6584 10.2047 3.6584L8.5419 3.68304C7.51958 3.70151 6.70667 4.53907 6.72514 5.56138L6.75593 7.25498C6.76209 7.42742 6.62661 7.56291 6.45417 7.56907L5.71513 7.58138C5.61044 7.58138 5.53039 7.66144 5.53039 7.76613L5.54886 8.93627C5.54886 9.04096 5.62891 9.12102 5.73361 9.12102L6.47264 9.10871C6.64508 9.10871 6.78055 9.24419 6.78671 9.41047L6.84214 12.9208C6.8483 13.2657 6.57116 13.549 6.22628 13.549H4.80983C2.56812 13.549 1.23172 12.2126 1.23172 9.96473V4.81004C1.23172 2.56833 2.56812 1.23193 4.80983 1.23193H9.97069C12.2124 1.23193 13.5488 2.56833 13.5488 4.81004V9.9709Z" fill="white"/>
</svg>
