<svg width="15" height="15" viewBox="0 0 15 15" fill="none" xmlns="http://www.w3.org/2000/svg">
<path d="M9.97068 1.23193H4.80983C2.56812 1.23193 1.23172 2.56834 1.23172 4.81004V9.96474C1.23172 12.2126 2.56812 13.549 4.80983 13.549H9.96453C12.2062 13.549 13.5426 12.2126 13.5426 9.9709V4.81004C13.5488 2.56834 12.2124 1.23193 9.97068 1.23193ZM7.39026 9.77998C6.07233 9.77998 5.00074 8.7084 5.00074 7.39047C5.00074 6.07254 6.07233 5.00096 7.39026 5.00096C8.70818 5.00096 9.77977 6.07254 9.77977 7.39047C9.77977 8.7084 8.70818 9.77998 7.39026 9.77998ZM11.0361 4.2373C11.0053 4.3112 10.9622 4.37895 10.9068 4.44053C10.8452 4.49596 10.7775 4.53907 10.7035 4.56986C10.6296 4.60065 10.5496 4.61913 10.4695 4.61913C10.3032 4.61913 10.1493 4.55754 10.0323 4.44053C9.97684 4.37895 9.93373 4.3112 9.90294 4.2373C9.87215 4.1634 9.85367 4.08334 9.85367 4.00328C9.85367 3.92321 9.87215 3.84315 9.90294 3.76925C9.93373 3.68919 9.97684 3.6276 10.0323 3.56602C10.1739 3.42437 10.3895 3.35663 10.5865 3.39974C10.6296 3.4059 10.6666 3.41821 10.7035 3.43669C10.7405 3.44901 10.7775 3.46748 10.8144 3.49212C10.8452 3.51059 10.876 3.54138 10.9068 3.56602C10.9622 3.6276 11.0053 3.68919 11.0361 3.76925C11.0669 3.84315 11.0854 3.92321 11.0854 4.00328C11.0854 4.08334 11.0669 4.1634 11.0361 4.2373Z" fill="white"/>
</svg>
